<svg version="1.2" baseProfile="tiny" xmlns="http://www.w3.org/2000/svg" width="1469.951" height="261.371"><switch><g><path d="M349.825 203.98c-3.505 0-7.324-.406-11.439-1.226-4.114-.812-7.933-1.756-11.439-2.85v-9.159h16.014c3.063 0 5.848-.441 8.358-1.323 2.528-.882 4.76-2.444 6.752-4.685 1.974-2.241 3.745-5.259 5.258-9.061 1.531-3.794 2.989-8.611 4.354-14.452-9.612 0-17.121-2.171-22.545-6.512-5.424-4.341-9.262-10.314-11.549-17.92L309.55 59.43h20.608l24.021 77.362c2.435 7.464 7.933 11.197 16.475 11.197l20.147-88.559h20.608l-24.962 109.937c-2.749 12.22-6.974 21.043-12.693 26.47-5.719 5.425-13.708 8.143-23.929 8.143zm145.122-75.942c2.897.679 5.516 1.562 7.896 2.647a22.029 22.029 0 016.402 4.473c1.9 1.906 3.579 4.315 5.037 7.235 1.439 2.92 2.638 6.476 3.542 10.685l5.719 26.47c.775 3.529 2.564 6.617 5.387 9.264 2.823 2.647 7.121 3.97 12.933 3.97v9.159c-1.07.406-2.362.741-3.893 1.015-2.749.679-6.033 1.023-9.852 1.023-6.863 0-12.545-2.038-17.047-6.106-4.502-4.076-7.583-10.182-9.262-18.326l-5.719-26.47c-1.531-7.191-4.243-12.044-8.136-14.558-3.893-2.506-8.431-3.768-13.616-3.768h-8.007v67.189h-20.608V59.429h20.608v61.074h8.007c3.967 0 7.712-1.288 11.217-3.865 3.505-2.576 6.254-7.403 8.247-14.461l5.719-20.355c4.575-16.288 13.339-24.432 26.309-24.432 1.992 0 3.819.097 5.498.309 1.679.203 3.136.441 4.354.706 1.513.406 2.823.75 3.893 1.023v9.159c-5.811 0-9.999 1.191-12.601 3.565-2.583 2.373-4.502 5.594-5.719 9.67l-5.719 20.355c-1.218 4.209-2.472 7.773-3.782 10.694-1.291 2.92-2.786 5.329-4.446 7.226-1.697 1.906-3.524 3.397-5.498 4.482-1.993 1.085-4.28 1.968-6.863 2.647v.812zm98.408 73.904h-20.608V61.458a120.331 120.331 0 0117.508-3.15c5.885-.609 12.25-.918 19.113-.918 9.169 0 16.936.847 23.357 2.541 6.402 1.703 11.586 4.517 15.553 8.453 3.967 3.935 6.863 9.159 8.708 15.679 1.826 6.512 2.749 14.594 2.749 24.229 0 9.908-.886 18.185-2.638 24.837s-4.428 11.982-8.007 15.979c-3.598 4.006-8.099 6.856-13.505 8.55-5.424 1.703-11.863 2.55-19.335 2.55-3.524 0-7.49-.203-11.918-.618-4.428-.406-8.081-.874-10.977-1.421v43.773zm16.014-55.992c5.184 0 9.649-.574 13.394-1.729 3.745-1.147 6.826-3.15 9.28-6 2.435-2.85 4.225-6.723 5.369-11.611 1.144-4.879 1.716-10.994 1.716-18.317 0-7.332-.572-13.438-1.716-18.326-1.144-4.888-2.933-8.753-5.369-11.603-2.454-2.85-5.535-4.853-9.28-6.009-3.745-1.156-8.21-1.729-13.394-1.729h-16.014v75.324h16.014zm101.858 19.349l-10.295 36.643h-20.608l38.909-142.513h29.759l38.909 142.513h-20.608L757 165.299h-45.773zm23.338-85.515h-.904l-19.003 71.256h38.909l-19.002-71.256zm156.32-10.182c9.464.547 18.006 2.241 25.644 5.091 7.62 2.85 14.114 6.856 19.445 12.017 5.35 5.153 9.464 11.435 12.361 18.829 2.897 7.403 4.354 15.776 4.354 25.146 0 9.361-1.457 17.743-4.354 25.146-2.896 7.394-7.011 13.676-12.361 18.829-5.332 5.162-11.826 9.158-19.445 12.008-7.638 2.85-16.18 4.553-25.644 5.091v14.25h-20.589v-14.25c-9.464-.538-18.006-2.241-25.644-5.091-7.62-2.85-14.114-6.847-19.445-12.008-5.35-5.153-9.464-11.435-12.361-18.829-2.897-7.403-4.354-15.785-4.354-25.146 0-9.37 1.457-17.744 4.354-25.146 2.896-7.394 7.011-13.676 12.361-18.829 5.332-5.162 11.826-9.167 19.445-12.017 7.638-2.85 16.18-4.544 25.644-5.091v-14.25h20.589v14.25zm-61.786 61.083c0 7.606 1.052 14.32 3.192 20.152 2.14 5.841 5.074 10.764 8.819 14.761 3.745 4.006 8.081 7.094 13.044 9.264s10.332 3.397 16.143 3.662V82.837c-5.812.274-11.18 1.5-16.143 3.67-4.963 2.171-9.298 5.259-13.044 9.256-3.745 4.006-6.679 8.929-8.819 14.761-2.14 5.841-3.192 12.556-3.192 20.161zm102.984 0c0-7.606-1.07-14.32-3.192-20.161-2.14-5.832-5.074-10.756-8.819-14.761-3.745-3.997-8.118-7.085-13.154-9.256-5.037-2.171-10.387-3.397-16.032-3.67v95.688c5.645-.265 10.996-1.491 16.032-3.662 5.037-2.171 9.409-5.259 13.154-9.264 3.745-3.997 6.679-8.92 8.819-14.761 2.122-5.832 3.192-12.547 3.192-20.153zm50.366 73.295c-3.801 0-7.084-.344-9.833-1.023-1.531-.274-2.823-.609-3.893-1.015v-9.159c3.21 0 6.107-.547 8.69-1.632 2.601-1.085 4.889-2.956 6.882-5.603 1.974-2.638 3.616-6.106 4.908-10.376 1.291-4.279 2.103-9.6 2.417-15.988l5.719-99.755h76.675v142.513h-20.608V73.679h-36.16l-5.037 85.506c-.461 8.144-1.568 15.07-3.321 20.77s-3.967 10.314-6.642 13.844c-2.657 3.529-5.719 6.106-9.151 7.738-3.432 1.622-6.975 2.443-10.646 2.443zm181.965-146.589c7.767 0 14.667 1.156 20.7 3.459 6.033 2.312 11.18 6.247 15.46 11.814 4.262 5.559 7.509 13.058 9.723 22.49 2.214 9.441 3.321 21.282 3.321 35.531 0 14.249-1.107 26.09-3.321 35.522-2.214 9.441-5.461 16.941-9.723 22.499-4.28 5.567-9.428 9.503-15.46 11.805-6.033 2.312-12.933 3.468-20.7 3.468-7.786 0-14.704-1.156-20.718-3.468-6.033-2.303-11.18-6.238-15.46-11.805-4.262-5.559-7.509-13.058-9.723-22.499-2.214-9.432-3.321-21.273-3.321-35.522 0-14.25 1.107-26.09 3.321-35.531 2.214-9.432 5.461-16.932 9.723-22.49 4.28-5.567 9.427-9.503 15.46-11.814 6.014-2.303 12.932-3.459 20.718-3.459zm0 134.369c3.653 0 7.232-.882 10.756-2.647 3.505-1.756 6.549-4.95 9.151-9.564 2.583-4.615 4.686-10.861 6.291-18.732 1.605-7.87 2.398-17.92 2.398-30.131 0-12.22-.793-22.261-2.398-30.131-1.605-7.87-3.708-14.117-6.291-18.732-2.601-4.615-5.646-7.809-9.151-9.573-3.524-1.756-7.103-2.647-10.756-2.647-3.671 0-7.25.891-10.774 2.647-3.505 1.765-6.549 4.959-9.151 9.573-2.583 4.615-4.686 10.861-6.291 18.732s-2.398 17.911-2.398 30.131c0 12.211.793 22.261 2.398 30.131s3.708 14.117 6.291 18.732c2.601 4.615 5.646 7.809 9.151 9.564 3.523 1.764 7.102 2.647 10.774 2.647zm110.99 10.182h-20.608V61.458a120.307 120.307 0 0117.508-3.15c5.885-.609 12.25-.918 19.113-.918 9.169 0 16.936.847 23.357 2.541 6.402 1.703 11.586 4.517 15.553 8.453 3.967 3.935 6.863 9.159 8.708 15.679 1.827 6.512 2.749 14.594 2.749 24.229 0 9.908-.886 18.185-2.638 24.837s-4.428 11.982-8.007 15.979c-3.598 4.006-8.099 6.856-13.505 8.55-5.424 1.703-11.863 2.55-19.335 2.55-3.524 0-7.49-.203-11.918-.618-4.428-.406-8.081-.874-10.977-1.421v43.773zm16.014-55.992c5.184 0 9.649-.574 13.394-1.729 3.745-1.147 6.826-3.15 9.28-6 2.435-2.85 4.225-6.723 5.369-11.611 1.144-4.879 1.716-10.994 1.716-18.317 0-7.332-.572-13.438-1.716-18.326-1.144-4.888-2.933-8.753-5.369-11.603-2.454-2.85-5.535-4.853-9.28-6.009-3.745-1.156-8.21-1.729-13.394-1.729h-16.014v75.324h16.014zm101.858 19.349l-10.295 36.643h-20.608l38.909-142.513h29.759l38.909 142.513h-20.608l-10.295-36.643h-45.771zm23.338-85.515h-.904l-19.003 71.256h38.909l-19.002-71.256z" fill="#007A32"/><path fill="#98014C" d="M130.685 0C58.51 0 0 58.51 0 130.685S58.51 261.37 130.685 261.37 261.37 202.86 261.37 130.685 202.861 0 130.685 0zm-4.497 30.573c17.422 2.6 31.35 15.642 42.234 25.779-7.9 5.511-17.383 11.542-27.509 18.57a394.092 394.092 0 00-10.035 7.233c-14.2-10.543-27.809-18.927-38.406-26.392 7.147-6.926 20.556-16.053 33.716-25.19zM65.11 117.898c9.496-37.968 2.401-60.023 13.824-59.337 7.019 9.028 23.582 18.141 42.042 31.216-6.347 5.146-12.685 10.776-18.808 17.004-30.54 31.078-31.969 67.369-19.809 94.361-15.772-17.421-27.066-43.955-17.249-83.244zm66.139 112.9c-36.472-6.797-67.927-68.194-21.367-115.568 28.176-28.667 61.727-42.736 72.554-56.669 6.89.405 3.517 18.11 13.824 59.337 22.391 89.598-65.011 112.9-65.011 112.9z"/></g></switch></svg>