<svg xmlns="http://www.w3.org/2000/svg" width="130.522" height="43.16"><g font-weight="400" letter-spacing="0" word-spacing="0" stroke-width=".265"><path d="M75.56 7.509h-3.043v-.367l.356-.031q.238-.021.326-.062.155-.062.227-.186.072-.13.072-.331V.64h-3.374v5.834q0 .18.057.305.062.124.237.217.088.046.31.093.228.046.357.052v.367h-3.044v-.367l.357-.031q.238-.021.326-.062.155-.062.227-.186.072-.13.072-.331V1.24q0-.165-.067-.3-.067-.139-.233-.217-.14-.067-.34-.118-.197-.052-.342-.062V.176h7.52v.367q-.145.005-.357.046-.207.041-.31.078-.176.062-.238.206-.057.145-.057.316v5.286q0 .18.057.305.062.124.238.217.088.047.31.093.227.047.356.052zm7.876 0h-3.054v-.367q.403-.026.666-.104.27-.077.27-.19 0-.047-.011-.115-.01-.067-.031-.118l-.61-1.644h-2.568q-.145.362-.238.63-.088.27-.16.497-.067.222-.093.362-.026.14-.026.227 0 .207.326.32.325.114.733.135v.367h-2.76v-.367q.135-.01.337-.057.201-.052.33-.134.207-.14.32-.29.115-.155.223-.424.553-1.38 1.22-3.1L79.498.072h.414l2.444 6.326q.077.201.176.325.098.124.274.243.118.072.31.124.19.047.32.052zM80.48 4.51l-1.111-2.84-1.09 2.842zm8.428-.417q.32.217.533.568.212.352.212.853 0 .511-.223.889-.222.377-.578.62-.347.238-.786.362-.434.124-.9.124h-3.472v-.367q.124-.01.362-.042.238-.036.341-.082.16-.073.227-.192.068-.124.068-.315v-5.27q0-.176-.062-.31-.057-.135-.233-.218-.155-.077-.346-.119-.191-.041-.32-.051V.176h3.384q.393 0 .75.077.361.078.687.274.305.181.501.491.197.31.197.754 0 .388-.14.693-.14.3-.393.517-.237.206-.548.351-.304.14-.661.217v.047q.315.036.703.16.393.119.697.336zm-1.245-1.106q.191-.222.264-.486.077-.263.077-.625 0-.605-.33-.946-.331-.346-1.045-.346-.165 0-.418.01l-.419.01v2.817h.657q.423 0 .723-.109.305-.108.491-.325zm.713 2.34q0-.65-.44-1.069-.433-.418-1.245-.418-.33 0-.558.01-.227.005-.34.01v2.584q0 .326.263.49.263.166.734.166.77 0 1.178-.45.408-.449.408-1.322zm9.886 2.182h-3.034v-.367l.362-.031q.243-.021.33-.062.156-.062.228-.186.073-.13.073-.331V1.959l-3.545 4.423v.119q0 .18.056.294.062.109.238.202.088.046.326.093.237.046.372.052v.367h-3.034v-.367l.357-.031q.238-.021.325-.062.155-.062.228-.186.072-.13.072-.331V1.24q0-.165-.067-.3-.067-.139-.233-.217-.14-.067-.34-.118-.197-.052-.342-.062V.176h3.034v.367q-.145.005-.362.046-.212.041-.315.078-.176.062-.238.206-.057.145-.057.316v4.46l3.545-4.42q0-.185-.067-.304-.067-.124-.232-.202-.13-.062-.357-.113-.227-.057-.357-.067V.176h3.034v.367q-.145.005-.357.046-.206.041-.31.078-.176.062-.238.206-.056.145-.056.316v5.286q0 .18.056.305.062.124.238.217.088.046.31.093.228.046.357.052zm2.966-6.786q-.14-.067-.424-.113-.279-.052-.367-.067V.176h5.83v.367q-.145.005-.357.046-.207.041-.31.078-.176.062-.238.206-.057.145-.057.316v5.286q0 .18.057.305.062.124.238.217.088.046.31.093.227.046.357.052v.367h-3.044v-.367l.356-.031q.238-.021.326-.062.155-.062.227-.186.073-.13.073-.331V.61h-1.974q0 1.803-.243 3.152-.238 1.344-.63 2.201-.378.832-.843 1.24-.46.409-.93.409-.434 0-.672-.217-.238-.222-.238-.517 0-.227.15-.444.155-.217.44-.217.2 0 .346.077.144.078.237.181t.16.217q.073.109.12.176.196-.16.439-.553.242-.393.48-1.1.228-.668.388-1.51t.16-1.886q0-.496-.072-.739-.068-.248-.295-.357zm10.759 4.537q0-.702-.475-1.116-.47-.418-1.25-.418-.357 0-.57.01-.206.005-.315.01v2.688q0 .34.202.506.202.16.796.16.785 0 1.199-.47.413-.475.413-1.37zm1.282.089q0 .553-.223.971-.217.419-.589.682-.351.253-.795.383-.44.124-.91.124h-3.473v-.367q.124-.01.362-.042.238-.036.341-.082.16-.073.228-.191.067-.124.067-.316v-5.25q0-.176-.062-.31-.057-.134-.233-.217-.119-.062-.336-.119-.212-.062-.351-.072V.176h3.106v.367q-.145.005-.383.051-.232.047-.336.083-.175.062-.243.212-.062.15-.062.32v2.083l.507-.01q.253-.005.49-.005.585 0 1.107.108.527.103.93.351.398.243.625.646.233.398.233.967zm6.728-4.305q.486.506.76 1.225.273.713.273 1.58 0 .874-.279 1.587t-.775 1.215q-.48.496-1.116.765-.636.268-1.354.268-.765 0-1.416-.284-.646-.29-1.11-.8-.466-.502-.735-1.215-.263-.719-.263-1.535 0-.894.279-1.592.279-.703.77-1.214.486-.507 1.126-.775.646-.269 1.35-.269.728 0 1.374.274.646.274 1.116.77zm-.77 5.199q.29-.47.419-1.065.134-.594.134-1.328 0-.755-.15-1.385-.145-.63-.429-1.075-.284-.44-.713-.682-.429-.248-.982-.248-.62 0-1.054.284-.434.284-.708.76-.258.455-.388 1.064-.124.61-.124 1.282 0 .744.135 1.343.134.6.423 1.065.28.455.703.713.424.253 1.013.253.553 0 .998-.258.444-.258.723-.723zm10.315 1.266h-3.044v-.367l.356-.031q.238-.021.326-.062.155-.062.227-.186.073-.13.073-.331v-2.61h-3.447v2.553q0 .18.057.305.062.124.237.217.088.046.31.093.228.046.357.052v.367h-3.044v-.367l.357-.031q.237-.021.325-.062.155-.062.228-.186.072-.13.072-.331V1.24q0-.165-.067-.3-.067-.139-.233-.217-.14-.067-.34-.118-.197-.052-.342-.062V.176h3.044v.367q-.145.005-.357.046-.206.041-.31.078-.175.062-.237.206-.057.145-.057.316v2.273h3.447V1.24q0-.165-.068-.3-.067-.139-.232-.217-.14-.067-.341-.118-.197-.052-.341-.062V.176h3.043v.367q-.144.005-.356.046-.207.041-.31.078-.176.062-.238.206-.057.145-.057.316v5.286q0 .18.057.305.062.124.238.217.088.046.31.093.227.046.356.052z" aria-label="ПАВИЛЬОН" font-size="10.583" font-family="Georgia" fill="#fff" fill-opacity=".995"/><g style="line-height:1.25;-inkscape-font-specification:Georgia"><path d="M9.079 43.16q-.745 0-1.216-.62t-.471-1.463q0-1.935 1.935-3.994 1.96-2.059 5.407-2.059 1.885 0 5.457 1.042 3.001.893 4.39.893.819 0 1.811-.695 1.017-.67 1.017-3.373-.52 0-3.224-.149-3.448-.198-5.78-.198l-13.394-.075q-2.68 0-4.49.422l.372-1.389q2.456-.1 3.597-1.215 1.14-1.117 2.927-7.268L9.97 13.89l2.431-9.079q-4.886.05-7.416 1.637Q2.48 8.037 2.48 10.145q0 .695.645 1.761.596.992.596 1.613 0 .67-.447 1.165-.446.472-1.14.472-.919 0-1.539-.844Q0 13.47 0 11.906q0-2.455 1.463-4.365Q2.952 5.606 5.11 4.688q2.183-.918 4.117-1.215 1.935-.298 8.012-.298-.918 1.836-1.34 3.001-.396 1.166-1.81 6.4-3.026 11.237-4.142 14.188-1.092 2.927-2.034 3.92 1.984.297 4.241.297 3.002 0 7.392-.595.074-.05 3.051-11.36 2.059-7.889 3.597-11.535 1.538-3.671 3.87-5.581Q32.42 0 35.52 0q2.109 0 3.324.843 1.216.819 1.216 1.96 0 1.439-1.489 1.439-.868 0-1.984-1.24t-1.984-1.24q-2.555 0-5.11 6.721-2.555 6.722-6.003 22.697.248.024 1.19.173 1.39.248 2.258.248 1.066 0 2.307-.248l-.62 3.026q-.422 1.935-1.117 3.002-.67 1.091-2.257 1.662-1.563.595-4.068.595-1.91 0-4.986-1.042-2.629-.893-4.29-.893-2.159 0-2.159 1.687 0 .446.372 1.215.372.744.372 1.117 0 1.438-1.413 1.438zm36.016-22.473l1.24-.025q3.324 0 3.324 3.275 0 3.348-3.87 6.3-3.87 2.927-7.565 2.927-4.589 0-4.589-4.887 0-5.804 3.547-11.261 3.572-5.457 8.335-5.457 3.621 0 3.621 3.299 0 3.225-4.043 5.83zm-6.92 1.96q7.391-3.175 7.391-6.92 0-2.357-1.96-2.357-3.844 0-5.432 9.277zm-.199 1.786q-.223 1.389-.223 2.728 0 2.233.496 3.126.52.892 1.761.892 1.786 0 3.671-1.91 1.885-1.934 1.885-4.464 0-2.605-1.984-2.605-1.588 0-5.606 2.233zm27.534 1.81l.818 1.092q-6.077 5.78-10.418 5.78-1.761 0-2.704-1.191-.918-1.191-.918-3.82 0-5.308 3.225-10.567 3.621-5.978 8.657-5.978 1.76 0 2.679.893.942.868.942 2.406 0 1.612-1.116 3.175-1.116 1.563-3.994 3.25-1.438.818-6.151 2.951-.223 1.34-.223 2.555 0 1.761.545 2.456.57.694 1.637.694 1.017 0 2.233-.57 1.637-.77 4.787-3.126zm-8.682-3.596q3.993-1.786 6.002-3.845 1.365-1.439 1.365-2.853 0-1.066-.571-1.686-.546-.645-1.439-.645-.917 0-1.786.694-1.165.918-1.96 2.778-1.14 2.729-1.611 5.557zm13.617-5.333l-.744-.993q2.456-2.455 4.663-3.621 2.208-1.166 3.473-1.166.521 0 .77.223.272.224.272.62 0 .497-.397 1.91-.57 2.084-.794 3.3 5.953-6.053 9.104-6.053.818 0 1.24.447.422.446.422 1.414 0 1.041-.745 3.547 2.828-2.952 4.912-4.168 2.083-1.24 3.25-1.24 1.04 0 1.611.595.57.596.57 1.836 0 .744-.247 1.761-.248 1.017-1.81 6.201-1.96 6.425-1.96 7.665 0 .843.694.843.471 0 .918-.297 1.463-1.042 3.001-2.58l.819.893q-.521.422-1.96 1.736-1.984 1.786-2.728 2.233-1.439.843-2.431.843-.744 0-1.315-.744-.57-.72-.57-2.01 0-1.19.347-2.777.347-1.613 2.034-7.194 1.265-4.192 1.265-5.085 0-.843-.744-.843-.62 0-1.662.62-2.133 1.29-3.572 3.15-.992 1.29-1.736 4.093-1.662 6.127-2.48 9.996h-3.523l3.696-15.155q.397-1.637.397-1.885 0-.397-.199-.596-.198-.223-.57-.223-.67 0-2.084 1.042-2.455 1.76-3.547 3.423-1.066 1.637-1.835 5.01l-1.91 8.384h-3.547l2.803-11.831q1.24-5.135 1.24-5.582 0-.57-.447-.57-.967 0-3.944 2.828zm38.373 3.324q3.473-1.464 5.135-1.464 2.307 0 3.72 1.265 1.44 1.265 1.44 3.448 0 3.82-3.449 6.598-3.448 2.753-7.59 2.753-4.936 0-4.936-3.1 0-.844.967-4.788l2.208-8.855q.174-.694.174-1.091 0-.744-.521-.744-1.092 0-3.82 2.678l-1.092-.843q5.21-4.862 7.863-4.862 1.365 0 1.365 1.811 0 1.761-1.464 7.194zm-1.835 8.756q0 1.041.545 1.587.546.546 2.084.546 2.704 0 4.366-1.563 1.686-1.587 1.686-4.638 0-3.845-3.87-3.845-1.364 0-3.224.794-1.587 6.275-1.587 7.119zm18.777-17.116h3.522l-2.332 8.657q-2.034 7.54-2.034 8.583 0 .967.695.967.893 0 4.093-3.25l.818.918q-4.96 5.185-7.342 5.185-.67 0-1.29-.62-.62-.596-.62-1.712 0-1.662 1.736-8.26z" style="-inkscape-font-specification:'Monotype Corsiva'" aria-label="Цветы" font-size="50.8" font-family="Monotype Corsiva" fill="#f49006"/></g></g></svg>